<svg xmlns="http://www.w3.org/2000/svg" x="0" y="0" viewBox="0 0 930.318 155.875">
  <defs>
    <style>
      .cls-1 {
        fill-rule: evenodd;
      }
    </style>
  </defs>
  <path data-name="Guia da Noiva" d="M207.847,658.551l1.95-6.449H169.148l-1.35,6.449h23.1c-4.8,11.7-27.6,63.6-45,25.349C128.95,646.4,160,577.255,187.3,577.555c5.1-.15,6.6,3.45,6.3,8.1-6,14.25-12,27.149-12,27.149s0.15,4.8,6.9,6c3.6,0.75,32.549-49.2,32.549-55.348,0-6-16.5-7.5-16.5-7.5-0.9,3.749-2.7,8.7-4.65,14.1-1.5-1.8-3.9-3-7.65-3.6-46.5-6.15-72.447,40.2-76.5,79.047-7.2,69,44.7,65.247,45.3,65.247,27.449,0,37.8-42.3,39.9-52.2h6.9ZM242.5,611.9c-9.3-10.349-22.35-7.2-22.35-7.2s-8.7,27.9-13.5,54.747c-4.8,27,19.649,33,19.649,33,5.55,2.7,13.95-13.049,19.8-25.949,0,21,20.25,25.949,20.25,25.949,9.3,4.5,26.4-42.148,26.4-42.148,0-2.25-3.45-2.85-3.45-2.85s-13.2,36.148-20.1,34.5c-6.9-1.5-4.5-14.4-4.5-14.849,4.8-23.849,17.7-55.2,17.7-55.2-9.15-10.349-22.2-7.2-22.2-7.2s-6.6,21.3-11.55,44.4c-2.7,7.2-13.5,34.348-19.5,32.848-6.9-1.5-4.5-14.4-4.35-14.849C229.6,643.252,242.5,611.9,242.5,611.9Zm67.948-12.3c6,3.15,13.05,1.95,15.9-2.55,3-4.65.45-10.8-5.4-14.1-6-3.149-13.2-2.1-16.049,2.55C302.046,590,304.446,596.3,310.445,599.6Zm-24.3,59.847c-4.8,27,19.65,33,19.65,33,9.3,4.5,26.4-42.148,26.4-42.148,0-2.25-3.449-2.85-3.449-2.85s-13.2,36.148-20.1,34.5c-6.749-1.5-4.5-14.4-4.349-14.849,4.8-23.849,17.7-55.2,17.7-55.2-9.3-10.349-22.349-7.2-22.349-7.2S290.946,632.6,286.146,659.451Zm47.1-34.648h0a6.974,6.974,0,0,1-.45,1.35,133.082,133.082,0,0,0-7.65,33.3c-2.55,27.3,19.649,33,19.649,33h0c5.7,2.7,14.4-13.949,20.249-27-0.6,21.9,20.25,27,20.25,27,9.3,4.5,26.4-42.148,26.4-42.148,0-2.25-3.3-2.85-3.3-2.85s-13.35,36.148-20.249,34.5c-6.75-1.5-4.5-14.4-4.35-14.849,4.8-23.849,17.7-55.2,17.7-55.2-9.3-10.349-22.2-7.2-22.2-7.2s-1.35,4.349-3.3,11.1c-0.6-5.4-2.4-9.9-6.6-11.1C346.593,598.254,336.544,616.853,333.244,624.8Zm37.5,10.8c-0.9,3.75-1.8,7.8-2.7,12l-0.15-.15s-13.349,36.148-20.249,34.5c-6.9-1.5-4.35-14.849-4.35-14.849h0a277.32,277.32,0,0,1,10.5-36c2.7-7.649,7.8-18.449,15-18.449C375.842,612.653,371.792,631.4,370.742,635.6ZM514.89,569.155s-7.5,22.8-14.7,46.948c-0.45-5.55-2.25-10.2-6.6-11.4-22.8-6.45-32.848,12.149-36.148,20.1h0a6.974,6.974,0,0,1-.45,1.35,133.082,133.082,0,0,0-7.65,33.3c-2.55,27.3,19.649,33,19.649,33h0c5.55,2.55,13.65-12.45,19.5-25.349,0.45,20.549,20.249,25.349,20.249,25.349,9.3,4.5,26.4-42.148,26.4-42.148,0-2.25-3.45-2.85-3.45-2.85s-13.2,36.148-20.1,34.5c-3.15-.6-4.35-3.6-4.65-6.749,4.5-32.7,30.149-98.846,30.149-98.846C527.789,566.005,514.89,569.155,514.89,569.155Zm-43.049,112.8c-6.9-1.5-4.349-14.849-4.349-14.849h0a277.161,277.161,0,0,1,10.5-36c2.7-7.649,7.8-18.449,15-18.449,5.55,0,4.2,11.85,2.85,18.9-1.8,6.6-3.449,12.9-4.8,18.6C487.891,658.4,477.541,683.3,471.841,681.95Zm64.35-57.147h0a6.974,6.974,0,0,1-.45,1.35,133.082,133.082,0,0,0-7.65,33.3c-2.55,27.3,19.65,33,19.65,33h0c5.7,2.7,14.4-13.949,20.249-27-0.6,21.9,20.249,27,20.249,27,9.3,4.5,26.4-42.148,26.4-42.148,0-2.25-3.3-2.85-3.3-2.85s-13.35,36.148-20.249,34.5c-6.75-1.5-4.5-14.4-4.35-14.849,4.8-23.849,17.7-55.2,17.7-55.2-9.3-10.349-22.2-7.2-22.2-7.2s-1.35,4.349-3.3,11.1c-0.6-5.4-2.4-9.9-6.6-11.1C549.54,598.254,539.491,616.853,536.191,624.8Zm37.5,10.8c-0.9,3.75-1.8,7.8-2.7,12l-0.15-.15s-13.35,36.148-20.25,34.5c-6.9-1.5-4.349-14.849-4.349-14.849h0a277.317,277.317,0,0,1,10.5-36c2.7-7.649,7.8-18.449,15-18.449C578.789,612.653,574.739,631.4,573.689,635.6Zm204.445-71.247s-13.949,43.8-23.549,78.6l-3.75,13.649c-1.349,4.95-2.4,9.6-3.3,13.65h0a1.134,1.134,0,0,0-.15.6V671c-5.1-11.1-4.5-40.349-.75-68.247,2.7-20.1-.3-31.2-9.75-37.2h0.15c-0.15-.15-0.45-0.15-0.6-0.3h0a41.1,41.1,0,0,0-7.2-2.55c-28.648-7.2-67.647-7.349-79.946,26.249-11.4,31.2,12,39.6,12,39.6-6.9-18,9.15-52.948,31.649-60.748a44.472,44.472,0,0,1,18.9-1.35c-3,9.9-12,38.4-19.2,63.6l-3.75,13.2c-3.9,13.949-7.05,26.249-8.4,33.9-4.8,27,19.65,32.848,19.65,32.848h0c1.5,0.3,5.549-1.8,1.2-6.749-2.85-3.3-2.85-9.15-2.4-12.75a299.065,299.065,0,0,1,7.049-31.049h0c0.9-2.85,1.65-5.7,2.55-8.7h0l3-10.2h0c7.95-26.1,18.3-55.5,22.949-68.4,0.6,2.1,1.2,6,1.05,13.2h0c-0.15,15.45-3.6,31.8-5.4,58.048-2.55,41.4,19.95,56.1,19.95,56.1h0c6,8.249,15.6,10.5,15.6,10.5h0c1.5,0.3,5.7-1.8,1.2-6.749-2.85-3.3-2.85-9.15-2.4-12.75,1.5-9.15,4.2-20.549,7.5-32.7h0.15l2.25-8.249c10.949-37.349,25.948-78.147,25.948-78.147C791.034,561.055,778.134,564.355,778.134,564.355Zm57.3,40.8c-4.2,1.649-5.1,4.649-5.25,6.9-6-12.3-20.849-16.349-32.4,7.5-24.449,50.848-8.249,71.1,7.05,75s33.3-3.6,42.748-34.2C862.436,612.053,842.486,602.3,835.437,605.154Zm2.1,46.048c-5.4,21.749-16.35,35.848-21.9,35.848-6,0-14.25-7.949-7.65-37.048,8.7-32.1,20.4-36.749,22.2-37.349a5.717,5.717,0,0,0,.3,1.95C840.687,607.7,843.836,625.553,837.537,651.2Zm39.9-51.6c6,3.15,13.049,1.95,15.9-2.55,3-4.65.45-10.8-5.4-14.1-6-3.149-13.2-2.1-16.05,2.55C869.036,590,871.436,596.3,877.436,599.6Zm-24.3,59.847c-4.8,27,19.649,33,19.649,33,9.3,4.5,26.4-42.148,26.4-42.148,0-2.25-3.45-2.85-3.45-2.85s-13.2,36.148-20.1,34.5c-6.75-1.5-4.5-14.4-4.35-14.849,4.8-23.849,17.7-55.2,17.7-55.2-9.3-10.349-22.35-7.2-22.35-7.2S857.937,632.6,853.137,659.451Zm39.748,3.6c-2.7,22.949,4.95,30.9,13.8,31.949,24.9,2.85,55.948-80.1,56.4-83.7s-8.55-7.349-8.55-7.349-26.549,75.747-37.048,75.3c-3.3-.15-6.45-7.8-4.05-18.6,5.85-22.949,17.1-49.5,17.1-49.5-9.149-10.349-22.2-7.049-22.2-7.049s-10.049,28.5-14.849,55.347A30.035,30.035,0,0,0,892.885,663.051ZM965.933,624.8h0a6.974,6.974,0,0,1-.45,1.35,133.082,133.082,0,0,0-7.65,33.3c-2.55,27.3,19.649,33,19.649,33h0c5.7,2.7,14.4-13.949,20.249-27-0.6,21.9,20.249,27,20.249,27,9.3,4.5,26.4-42.148,26.4-42.148,0-2.25-3.3-2.85-3.3-2.85s-13.35,36.148-20.25,34.5c-6.75-1.5-4.5-14.4-4.35-14.849,4.8-23.849,17.7-55.2,17.7-55.2-9.3-10.349-22.2-7.2-22.2-7.2s-1.35,4.349-3.3,11.1c-0.6-5.4-2.4-9.9-6.6-11.1C979.282,598.254,969.233,616.853,965.933,624.8Zm37.5,10.8c-0.9,3.75-1.8,7.8-2.7,12l-0.15-.15s-13.348,36.148-20.248,34.5c-6.9-1.5-4.35-14.849-4.35-14.849h0a277.32,277.32,0,0,1,10.5-36c2.7-7.649,7.8-18.449,15-18.449C1008.53,612.653,1004.48,631.4,1003.43,635.6Z" transform="translate(-114.562 -555.406)"/>
</svg>
